<svg width="24" height="24" viewBox="0 0 24 24" fill="none" xmlns="http://www.w3.org/2000/svg">
<path fill-rule="evenodd" clip-rule="evenodd" d="M16.0015 21.0036H7.99818C5.23603 21.0036 2.99609 18.7637 2.99609 16.0015V7.99818C2.99609 5.23603 5.23603 2.99609 7.99818 2.99609H16.0015C18.7637 2.99609 21.0036 5.23603 21.0036 7.99818V16.0015C21.0036 18.7637 18.7637 21.0036 16.0015 21.0036Z" fill="#10A8C9"/>
<path fill-rule="evenodd" clip-rule="evenodd" d="M14.7981 10.4692C15.091 10.7621 15.091 11.2369 14.7981 11.5298L11.9639 14.364C11.6711 14.6569 11.1962 14.6569 10.9033 14.364L9.20258 12.6633C8.90969 12.3704 8.90969 11.8955 9.20258 11.6027C9.49547 11.3098 9.97035 11.3098 10.2632 11.6027L11.4336 12.773L13.7375 10.4692C14.0304 10.1763 14.5052 10.1763 14.7981 10.4692Z" fill="white"/>
</svg>
