<svg width="20" height="16" viewBox="0 0 20 16" fill="none" xmlns="http://www.w3.org/2000/svg">
<path d="M7.49624 14.505C8.31524 14.822 9.15824 15 10.0002 15C13.4952 15 16.9902 11.967 18.8822 8.468C19.0392 8.177 19.0392 7.824 18.8822 7.533C18.3842 6.612 17.7702 5.73 17.0792 4.921M3.00024 15L17.0002 1M7.77324 10.227C6.54324 8.997 6.54324 7.002 7.77324 5.772C9.00324 4.542 10.9982 4.542 12.2282 5.772M15.0442 2.956C13.4972 1.759 11.7482 1 10.0002 1C6.50524 1 3.01024 4.033 1.11824 7.533C0.961238 7.824 0.961238 8.177 1.11824 8.468C2.06424 10.217 3.41024 11.849 4.95624 13.045" stroke="#9CA4B3" stroke-width="1.5" stroke-linecap="round" stroke-linejoin="round"/>
</svg>
