<svg width="20" height="20" viewBox="0 0 20 20" fill="none" xmlns="http://www.w3.org/2000/svg">
<path d="M8.333 15V9.444C8.333 8.831 8.831 8.333 9.444 8.333H11.666M11.667 15V6.111C11.667 5.498 12.164 5 12.778 5H13.889C14.502 5 15 5.498 15 6.111V13.889C15 14.502 14.502 15 13.889 15H6.111C5.498 15 5 14.502 5 13.889V12.778C5 12.165 5.498 11.667 6.111 11.667H8.333M16 19H4C2.343 19 1 17.657 1 16V4C1 2.343 2.343 1 4 1H16C17.657 1 19 2.343 19 4V16C19 17.657 17.657 19 16 19Z" stroke="#9CA4B3" stroke-width="1.5" stroke-linecap="round" stroke-linejoin="round"/>
</svg>
