<svg width="32" height="32" viewBox="0 0 32 32" fill="none" xmlns="http://www.w3.org/2000/svg">
<path d="M20.7461 21.0195C20.7461 20.0078 20.418 19.1829 19.7617 18.5449C19.1055 17.8978 17.9479 17.2871 16.2891 16.7129C14.2292 16.0658 12.7845 15.3001 11.9551 14.416C11.1257 13.5228 10.7109 12.3698 10.7109 10.957C10.7109 9.47135 11.1667 8.26823 12.0781 7.34766C12.9896 6.41797 14.2292 5.88932 15.7969 5.76172V3H17.1914V5.76172C18.7956 5.90755 20.0352 6.50911 20.9102 7.56641C21.7943 8.6237 22.2363 10.0592 22.2363 11.873H20.6094C20.6094 10.4421 20.2357 9.30729 19.4883 8.46875C18.75 7.62109 17.7383 7.19727 16.4531 7.19727C15.1589 7.19727 14.1471 7.53906 13.418 8.22266C12.6979 8.89714 12.3379 9.79948 12.3379 10.9297C12.3379 12.0234 12.6706 12.8802 13.3359 13.5C14.0013 14.1107 15.1315 14.6895 16.7266 15.2363C18.3307 15.7741 19.4928 16.2936 20.2129 16.7949C20.9421 17.2871 21.4844 17.875 21.8398 18.5586C22.2044 19.2331 22.3867 20.0443 22.3867 20.9922C22.3867 22.487 21.9173 23.6947 20.9785 24.6152C20.0488 25.5267 18.7682 26.0462 17.1367 26.1738V28.7715H15.7559V26.1875C13.9238 26.069 12.5065 25.4948 11.5039 24.4648C10.5013 23.4258 10 22.0085 10 20.2129H11.6406C11.6406 21.6348 12.0553 22.7513 12.8848 23.5625C13.7142 24.3646 14.8717 24.7656 16.3574 24.7656C17.6517 24.7656 18.7044 24.4193 19.5156 23.7266C20.3359 23.0339 20.7461 22.1315 20.7461 21.0195Z" fill="#10203B"/>
</svg>
