<svg width="32" height="32" viewBox="0 0 32 32" fill="none" xmlns="http://www.w3.org/2000/svg">
<path d="M11.4386 22.6696H6.66192C5.18797 22.6696 3.99414 21.4757 3.99414 20.0018V6.66289C3.99414 5.18895 5.18797 3.99512 6.66192 3.99512H20.0008C21.4748 3.99512 22.6686 5.18895 22.6686 6.66289V10.6646" stroke="#F2994A" stroke-width="2" stroke-linecap="round" stroke-linejoin="round"/>
<path fill-rule="evenodd" clip-rule="evenodd" d="M20.8304 27.5757L28.9071 19.499C29.4806 18.9254 29.4806 17.997 28.9071 17.4248L26.5794 15.0972C26.0059 14.5236 25.0775 14.5236 24.5052 15.0972L16.4285 23.1739C16.1524 23.45 15.999 23.8221 15.999 24.2103V28.0052H19.7939C20.1821 28.0052 20.5543 27.8518 20.8304 27.5757Z" stroke="#F2994A" stroke-width="2" stroke-linecap="round" stroke-linejoin="round"/>
<path d="M15.9991 12.1104L12.6644 15.4451L10.6636 13.4442" stroke="#F2994A" stroke-width="2" stroke-linecap="round" stroke-linejoin="round"/>
</svg>
