<svg width="32" height="32" viewBox="0 0 32 32" fill="none" xmlns="http://www.w3.org/2000/svg">
<path fill-rule="evenodd" clip-rule="evenodd" d="M16 4V4C22.628 4 28 9.372 28 16V16C28 22.628 22.628 28 16 28V28C9.372 28 4 22.628 4 16V16C4 9.372 9.372 4 16 4Z" stroke="#D82045" stroke-width="2" stroke-linecap="round" stroke-linejoin="round"/>
<path d="M16.0002 16.6667V10" stroke="#D82045" stroke-width="2" stroke-linecap="round" stroke-linejoin="round"/>
<path d="M15.9988 21.3333C15.8148 21.3333 15.6655 21.4827 15.6668 21.6667C15.6668 21.8507 15.8162 22 16.0002 22C16.1842 22 16.3335 21.8507 16.3335 21.6667C16.3335 21.4827 16.1842 21.3333 15.9988 21.3333" stroke="#D82045" stroke-width="2" stroke-linecap="round" stroke-linejoin="round"/>
</svg>
