<svg width="32" height="32" viewBox="0 0 32 32" fill="none" xmlns="http://www.w3.org/2000/svg">
<path d="M17.5586 23.7969C18.7708 23.7969 19.7415 23.4505 20.4707 22.7578C21.1999 22.0651 21.5645 21.1491 21.5645 20.0098H23.1367C23.1367 21.5775 22.6172 22.849 21.5781 23.8242C20.5482 24.7904 19.2174 25.2734 17.5859 25.2734C16 25.2734 14.6921 24.7812 13.6621 23.7969C12.6413 22.8034 12.1309 21.4863 12.1309 19.8457V17.7266H9V16.373H12.1309V13.5156H9V12.1758H12.1309V9.90625C12.1309 8.33854 12.6549 7.05794 13.7031 6.06445C14.7513 5.06185 16.0775 4.56055 17.6816 4.56055C19.2585 4.56055 20.5573 5.03451 21.5781 5.98242C22.599 6.92122 23.1367 8.19271 23.1914 9.79688H21.6465C21.61 8.67578 21.2181 7.77344 20.4707 7.08984C19.7324 6.39714 18.8027 6.05078 17.6816 6.05078C16.4967 6.05078 15.5352 6.41081 14.7969 7.13086C14.0677 7.85091 13.7031 8.8125 13.7031 10.0156V12.1758H18.2148V13.5156H13.7031V16.373H18.2148V17.7266H13.7031V19.6543C13.7031 20.9486 14.0586 21.9648 14.7695 22.7031C15.4805 23.4323 16.4102 23.7969 17.5586 23.7969Z" fill="#10203B"/>
</svg>
