<svg width="32" height="32" viewBox="0 0 32 32" fill="none" xmlns="http://www.w3.org/2000/svg">
<rect width="32" height="32" rx="4" fill="white"/>
<path fill-rule="evenodd" clip-rule="evenodd" d="M16.75 10.3429C16.75 9.92867 16.4142 9.59289 16 9.59289C15.5858 9.59289 15.25 9.92867 15.25 10.3429L15.25 15.2497L10.3431 15.2497C9.92893 15.2497 9.59315 15.5855 9.59315 15.9997C9.59315 16.414 9.92893 16.7497 10.3431 16.7497L15.25 16.7497L15.25 21.6566C15.25 22.0708 15.5858 22.4066 16 22.4066C16.4142 22.4066 16.75 22.0708 16.75 21.6566L16.75 16.7497L21.6569 16.7497C22.0711 16.7497 22.4069 16.414 22.4069 15.9997C22.4069 15.5855 22.0711 15.2497 21.6569 15.2497L16.75 15.2497L16.75 10.3429Z" fill="#10A8C9"/>
</svg>
