<svg width="32" height="32" viewBox="0 0 32 32" fill="none" xmlns="http://www.w3.org/2000/svg">
<path d="M17.4883 20.2715H12.457V24.9062H10.7891V20.2715H8V18.8359H10.7891V16.7988H8V15.377H10.7891V5H17.5703C19.6667 5 21.3027 5.5332 22.4785 6.59961C23.6634 7.6569 24.2559 9.09701 24.2559 10.9199C24.2559 12.7793 23.6816 14.224 22.5332 15.2539C21.3848 16.2747 19.7441 16.7897 17.6113 16.7988H12.457V18.8359H17.4883V20.2715ZM12.457 15.377H17.5703C19.1562 15.377 20.3867 14.9941 21.2617 14.2285C22.1367 13.4538 22.5742 12.36 22.5742 10.9473C22.5742 9.58008 22.1458 8.49544 21.2891 7.69336C20.4414 6.89128 19.2702 6.47201 17.7754 6.43555H12.457V15.377Z" fill="#10203B"/>
</svg>
