<svg width="24" height="24" viewBox="0 0 24 24" fill="none" xmlns="http://www.w3.org/2000/svg">
<path fill-rule="evenodd" clip-rule="evenodd" d="M13.7675 10.2319C14.7438 11.2082 14.7438 12.7911 13.7675 13.7674C12.7912 14.7438 11.2082 14.7438 10.2319 13.7674C9.25562 12.7911 9.25562 11.2082 10.2319 10.2319C11.2082 9.2556 12.7912 9.2556 13.7675 10.2319Z" stroke="#10A8C9" stroke-width="1.5" stroke-linecap="round" stroke-linejoin="round"/>
<path fill-rule="evenodd" clip-rule="evenodd" d="M14.8487 4.11971L15.4317 4.31371C15.9657 4.49171 16.3267 4.99171 16.3267 5.55471V6.39171C16.3267 7.10371 16.8947 7.68471 17.6067 7.69971L18.4447 7.71771C18.9297 7.72771 19.3697 8.00671 19.5867 8.44071L19.8617 8.99071C20.1137 9.49471 20.0147 10.1027 19.6167 10.5007L19.0247 11.0927C18.5217 11.5957 18.5127 12.4087 19.0047 12.9227L19.5847 13.5287C19.9207 13.8797 20.0347 14.3867 19.8807 14.8477L19.6867 15.4307C19.5087 15.9647 19.0087 16.3257 18.4457 16.3257H17.6087C16.8967 16.3257 16.3157 16.8937 16.3007 17.6057L16.2827 18.4437C16.2727 18.9287 15.9937 19.3687 15.5597 19.5857L15.0097 19.8607C14.5057 20.1127 13.8977 20.0137 13.4997 19.6157L12.9077 19.0237C12.4047 18.5207 11.5917 18.5117 11.0777 19.0037L10.4717 19.5837C10.1207 19.9197 9.61366 20.0337 9.15266 19.8797L8.56966 19.6857C8.03566 19.5077 7.67466 19.0077 7.67466 18.4447V17.6077C7.67466 16.8957 7.10666 16.3147 6.39466 16.2997L5.55666 16.2817C5.07166 16.2717 4.63166 15.9927 4.41466 15.5587L4.13966 15.0087C3.88766 14.5047 3.98666 13.8967 4.38466 13.4987L4.97666 12.9067C5.47966 12.4037 5.48866 11.5907 4.99666 11.0767L4.41666 10.4707C4.07966 10.1187 3.96566 9.61071 4.11966 9.15071L4.31366 8.56771C4.49166 8.03371 4.99166 7.67271 5.55466 7.67271H6.39166C7.10366 7.67271 7.68466 7.10471 7.69966 6.39271L7.71766 5.55471C7.72966 5.06971 8.00766 4.62971 8.44166 4.41271L8.99166 4.13771C9.49566 3.88571 10.1037 3.98471 10.5017 4.38271L11.0937 4.97471C11.5967 5.47771 12.4097 5.48671 12.9237 4.99471L13.5297 4.41471C13.8807 4.07971 14.3887 3.96571 14.8487 4.11971Z" stroke="#10A8C9" stroke-width="1.5" stroke-linecap="round" stroke-linejoin="round"/>
</svg>
